# Blender v2.83.0 OBJ File: 'ball.blend'
# www.blender.org
v 0.000000 0.353553 -0.353553
v 0.000000 -0.000000 -0.500000
v 0.000000 -0.353553 -0.353553
v 0.306186 0.353553 -0.176777
v 0.433013 -0.000000 -0.250000
v 0.306186 -0.353553 -0.176777
v 0.306186 0.353553 0.176777
v 0.433013 -0.000000 0.250000
v 0.306186 -0.353553 0.176777
v -0.000000 0.353553 0.353553
v -0.000000 -0.000000 0.500000
v -0.000000 -0.353553 0.353553
v 0.000000 -0.500000 0.000000
v -0.000000 0.500000 0.000000
v -0.306186 0.353553 0.176777
v -0.433013 -0.000000 0.250000
v -0.306186 -0.353553 0.176777
v -0.306186 0.353553 -0.176777
v -0.433013 -0.000000 -0.250000
v -0.306186 -0.353553 -0.176777
vt 0.666667 0.750000
vt 0.583333 1.000000
vt 0.500000 0.750000
vt 0.583333 0.000000
vt 0.666667 0.250000
vt 0.500000 0.250000
vt 0.666667 0.500000
vt 0.500000 0.500000
vt 0.416667 0.000000
vt 0.333333 0.250000
vt 0.333333 0.750000
vt 0.333333 0.500000
vt 0.416667 1.000000
vt 0.250000 0.000000
vt 0.166667 0.250000
vt 0.166667 0.750000
vt 0.166667 0.500000
vt 0.250000 1.000000
vt 0.083333 1.000000
vt 0.000000 0.750000
vt 0.083333 0.000000
vt 0.000000 0.250000
vt 0.000000 0.500000
vt 1.000000 0.250000
vt 1.000000 0.500000
vt 0.833333 0.500000
vt 0.833333 0.250000
vt 1.000000 0.750000
vt 0.916667 1.000000
vt 0.833333 0.750000
vt 0.916667 0.000000
vt 0.750000 1.000000
vt 0.750000 0.000000
vn 0.0000 0.6503 -0.7597
vn 0.0000 1.0000 0.0000
vn 0.6579 0.6503 -0.3798
vn 0.0000 -1.0000 0.0000
vn 0.0000 -0.6503 -0.7597
vn 0.6579 -0.6503 -0.3798
vn 0.0000 0.0000 -1.0000
vn 0.8660 0.0000 -0.5000
vn 0.6579 -0.6503 0.3798
vn 0.6579 0.6503 0.3798
vn 0.8660 0.0000 0.5000
vn 0.0000 -0.6503 0.7597
vn 0.0000 0.6503 0.7597
vn 0.0000 0.0000 1.0000
vn -0.6579 0.6503 0.3798
vn -0.6579 -0.6503 0.3798
vn -0.8660 0.0000 0.5000
vn -0.8660 0.0000 -0.5000
vn -0.6579 -0.6503 -0.3798
vn -0.6579 0.6503 -0.3798
s 1
f 1/1/1 14/2/2 4/3/3
f 13/4/4 3/5/5 6/6/6
f 2/7/7 1/1/1 4/3/3 5/8/8
f 3/5/5 2/7/7 5/8/8 6/6/6
f 13/9/4 6/6/6 9/10/9
f 5/8/8 4/3/3 7/11/10 8/12/11
f 6/6/6 5/8/8 8/12/11 9/10/9
f 4/3/3 14/13/2 7/11/10
f 13/14/4 9/10/9 12/15/12
f 8/12/11 7/11/10 10/16/13 11/17/14
f 9/10/9 8/12/11 11/17/14 12/15/12
f 7/11/10 14/18/2 10/16/13
f 10/16/13 14/19/2 15/20/15
f 13/21/4 12/15/12 17/22/16
f 11/17/14 10/16/13 15/20/15 16/23/17
f 12/15/12 11/17/14 16/23/17 17/22/16
f 17/24/16 16/25/17 19/26/18 20/27/19
f 15/28/15 14/29/2 18/30/20
f 13/31/4 17/24/16 20/27/19
f 16/25/17 15/28/15 18/30/20 19/26/18
f 20/27/19 19/26/18 2/7/7 3/5/5
f 18/30/20 14/32/2 1/1/1
f 13/33/4 20/27/19 3/5/5
f 19/26/18 18/30/20 1/1/1 2/7/7
