# Blender v2.83.0 OBJ File: 'cube.blend'
# www.blender.org
v -0.500000 -0.500000 0.500000
v -0.500000 0.500000 0.500000
v -0.500000 -0.500000 -0.500000
v -0.500000 0.500000 -0.500000
v 0.500000 -0.500000 0.500000
v 0.500000 0.500000 0.500000
v 0.500000 -0.500000 -0.500000
v 0.500000 0.500000 -0.500000
vt 1.000001 1.000000
vt 0.000001 1.000000
vt 0.000001 0.000000
vt 1.000000 -0.000000
vt 1.000000 1.000000
vt -0.000000 1.000000
vt -0.000000 0.000000
vt 0.999999 0.000000
vt 1.000001 1.000000
vt 0.000001 1.000000
vt 0.000001 0.000000
vt 1.000000 -0.000000
vt -0.000000 1.000000
vt 1.000000 0.000000
vt 0.000001 1.000000
vt 0.000001 0.000000
vt 1.000001 0.000000
vt 1.000000 0.000000
vt 1.000000 1.000000
vn -1.0000 0.0000 0.0000
vn 0.0000 0.0000 -1.0000
vn 1.0000 0.0000 0.0000
vn 0.0000 0.0000 1.0000
vn 0.0000 -1.0000 0.0000
vn 0.0000 1.0000 0.0000
s off
f 1/1/1 2/2/1 4/3/1 3/4/1
f 3/5/2 4/6/2 8/7/2 7/8/2
f 7/9/3 8/10/3 6/11/3 5/12/3
f 5/13/4 6/11/4 2/14/4 1/1/4
f 3/5/5 7/15/5 5/16/5 1/17/5
f 8/18/6 4/19/6 2/2/6 6/11/6
